<svg width="295" height="307" viewBox="0 0 295 307" fill="none" xmlns="http://www.w3.org/2000/svg">
<path d="M262.072 233.636L262.067 233.774L268.991 307H218.46L211.91 262.027L209.027 305.847L157.134 305.27L162.647 247.739L167.334 221.072V221.066L168.038 217.053H260.694L260.815 218.506L262.072 233.636Z" fill="#2F2E41"/>
<path d="M128.531 276.085C133.883 277.06 139.463 271.033 140.996 262.623C141.666 258.942 141.45 255.414 140.546 252.529L141.366 247.681L155.137 182.465C155.137 182.465 180.495 131.74 180.495 122.934C180.494 114.128 173.159 109.809 173.159 109.809L163.234 109.902L132.108 185.922L126.503 242.098L125.596 249.806C123.732 252.186 122.286 255.411 121.615 259.092C120.083 267.502 123.18 275.11 128.531 276.085Z" fill="#FFB6B6"/>
<path d="M229.495 78.3853L220.27 57.0518L190.288 62.241L188.27 87.3405L229.495 78.3853Z" fill="#FFB6B6"/>
<path opacity="0.1" d="M229.495 78.3853L220.27 57.0518L190.288 62.241L188.27 87.3405L229.495 78.3853Z" fill="black"/>
<path d="M294.649 122.782C294.649 122.782 273.316 82.9979 269.28 78.9618C267.483 77.1651 264.659 77.1401 262.076 77.6638L232.379 67.4302L222.313 61.7744L221.649 72.5346L188.602 78.4661C188.786 71.9042 189.712 69.4082 189.712 69.4082L177.603 83.5745L153.963 95.1061L153.976 95.21C152.242 95.8155 150.597 96.8517 149.351 98.5656C144.738 104.908 132.053 182.17 132.053 182.17L159.153 187.936L162.841 164.792L165.495 185.629L167.513 224.549C167.513 224.549 204.414 256.261 222.288 244.729C240.162 233.197 262.072 233.774 262.072 233.774L262.619 215.734C263.008 215.112 263.226 214.747 263.226 214.747L262.649 150.755V133.728C267.042 139.847 272.342 145.11 278.505 147.575C298.685 155.647 294.649 122.782 294.649 122.782V122.782Z" fill="#E6E6E6"/>
<path d="M202.145 65.9946C217.379 65.9946 229.728 53.6453 229.728 38.4118C229.728 23.1782 217.379 10.829 202.145 10.829C186.912 10.829 174.562 23.1782 174.562 38.4118C174.562 53.6453 186.912 65.9946 202.145 65.9946Z" fill="#FFB6B6"/>
<path d="M221.933 46.207C221.933 46.207 224.331 37.8122 229.728 38.4118C235.125 39.0115 236.324 34.2144 235.125 31.8159C233.925 29.4174 231.527 17.4249 231.527 17.4249C231.527 17.4249 232.726 9.03015 225.531 7.8309C218.335 6.63165 215.937 5.4324 214.737 3.03389C213.538 0.63539 195.549 -1.76311 189.553 1.83464C183.557 5.4324 178.76 12.3352 174.562 14.2804C170.365 16.2257 166.767 19.8234 169.166 25.8197C171.564 31.8159 175.043 43.5433 175.043 43.5433C175.043 43.5433 181.158 41.41 182.358 45.0077C183.557 48.6055 178.76 43.8085 184.756 34.2144C190.752 24.6204 190.752 15.0264 200.346 18.6242C209.94 22.2219 220.734 21.0227 219.534 28.2182C218.335 35.4137 221.933 46.207 221.933 46.207V46.207Z" fill="#2F2E41"/>
<path d="M220.246 264.872H10.7647C4.8406 264.872 0.0211487 260.053 0.0211487 254.129V142.853C0.0211487 136.929 4.8406 132.109 10.7647 132.109H220.246C226.17 132.109 230.99 136.929 230.99 142.853V254.129C230.99 260.053 226.17 264.872 220.246 264.872Z" fill="white"/>
<path d="M220.246 264.872H10.7647C4.8406 264.872 0.0211487 260.053 0.0211487 254.129V142.853C0.0211487 136.929 4.8406 132.109 10.7647 132.109H220.246C226.17 132.109 230.99 136.929 230.99 142.853V254.129C230.99 260.053 226.17 264.872 220.246 264.872ZM10.7647 133.903C5.83007 133.903 1.81525 137.918 1.81525 142.853V254.129C1.81525 259.064 5.83007 263.078 10.7647 263.078H220.246C225.181 263.078 229.196 259.064 229.196 254.129V142.853C229.196 137.918 225.181 133.903 220.246 133.903H10.7647Z" fill="#3F3D56"/>
<path d="M204.078 145.565C205.564 145.565 206.769 144.36 206.769 142.874C206.769 141.387 205.564 140.183 204.078 140.183C202.592 140.183 201.387 141.387 201.387 142.874C201.387 144.36 202.592 145.565 204.078 145.565Z" fill="#3F3D56"/>
<path d="M211.255 145.565C212.741 145.565 213.946 144.36 213.946 142.874C213.946 141.387 212.741 140.183 211.255 140.183C209.768 140.183 208.564 141.387 208.564 142.874C208.564 144.36 209.768 145.565 211.255 145.565Z" fill="#3F3D56"/>
<path d="M218.431 145.565C219.918 145.565 221.122 144.36 221.122 142.874C221.122 141.387 219.918 140.183 218.431 140.183C216.945 140.183 215.74 141.387 215.74 142.874C215.74 144.36 216.945 145.565 218.431 145.565Z" fill="#3F3D56"/>
<path d="M15.271 186.381C14.529 186.381 13.9254 186.984 13.9254 187.726C13.9254 188.088 14.0652 188.423 14.3188 188.67C14.5746 188.932 14.9097 189.072 15.271 189.072H216.637C217.379 189.072 217.983 188.468 217.983 187.726C217.983 187.364 217.843 187.03 217.589 186.783C217.333 186.521 216.998 186.381 216.637 186.381H15.271Z" fill="#E6E6E6"/>
<path d="M191.52 185.932V189.52H15.2712C14.7778 189.52 14.3293 189.323 14.0064 188.991C13.6744 188.668 13.4771 188.22 13.4771 187.726C13.4771 186.739 14.2844 185.932 15.2712 185.932H191.52Z" fill="#009EDD"/>
<path d="M214.394 179.204H196.453C194.475 179.204 192.865 177.595 192.865 175.616C192.865 173.637 194.475 172.028 196.453 172.028H214.394C216.373 172.028 217.983 173.637 217.983 175.616C217.983 177.595 216.373 179.204 214.394 179.204Z" fill="#E6E6E6"/>
<path d="M96.8807 160.366H16.6165C14.638 160.366 13.0283 158.757 13.0283 156.778C13.0283 154.799 14.638 153.19 16.6165 153.19H96.8807C98.8592 153.19 100.469 154.799 100.469 156.778C100.469 158.757 98.8592 160.366 96.8807 160.366Z" fill="#E6E6E6"/>
<path d="M15.271 226.748C14.529 226.748 13.9254 227.351 13.9254 228.093C13.9254 228.455 14.0652 228.79 14.3188 229.037C14.5746 229.299 14.9097 229.439 15.271 229.439H216.637C217.379 229.439 217.983 228.835 217.983 228.093C217.983 227.732 217.843 227.397 217.589 227.15C217.333 226.888 216.998 226.748 216.637 226.748H15.271Z" fill="#E6E6E6"/>
<path d="M122.447 226.299V229.888H15.2712C14.7778 229.888 14.3293 229.69 14.0064 229.358C13.6744 229.035 13.4771 228.587 13.4771 228.093C13.4771 227.107 14.2844 226.299 15.2712 226.299H122.447Z" fill="#009EDD"/>
<path d="M214.394 219.571H196.453C194.475 219.571 192.865 217.962 192.865 215.983C192.865 214.004 194.475 212.395 196.453 212.395H214.394C216.373 212.395 217.983 214.004 217.983 215.983C217.983 217.962 216.373 219.571 214.394 219.571Z" fill="#E6E6E6"/>
<path d="M245.803 68.1177C261.319 68.1177 273.897 55.8042 273.897 40.6149C273.897 25.4255 261.319 13.1121 245.803 13.1121C230.286 13.1121 217.708 25.4255 217.708 40.6149C217.708 55.8042 230.286 68.1177 245.803 68.1177Z" fill="#009EDD"/>
<path d="M255.338 26.7422C251.598 33.5529 247.857 40.3636 244.117 47.1743C241.733 42.9624 239.362 38.743 236.973 34.5344C236.147 33.0809 233.903 34.3883 234.73 35.8454C237.5 40.7241 240.242 45.6191 243.012 50.4978C243.485 51.332 244.786 51.3514 245.254 50.4978C249.363 43.0163 253.472 35.5347 257.581 28.0532C258.386 26.5872 256.144 25.2751 255.338 26.7422Z" fill="white"/>
<path d="M284.586 113.109L256.595 99.7188C256.595 99.7188 255.471 90.7566 250.221 87.5599C249.329 85.4309 248.302 83.092 247.369 81.2387C245.063 76.6556 248.523 68.0068 245.64 68.0068C242.757 68.0068 238.495 77.1027 238.721 79.5385C238.894 81.4083 240.439 84.6728 240.759 87.5304C237.243 88.8563 234.407 91.1288 232.543 92.9382C230.929 94.504 230.329 96.8402 230.96 98.9985C232.787 105.253 237.355 118.169 243.91 118.169C252.559 118.169 254.865 116.44 254.865 116.44C254.865 116.44 272.739 138.926 286 140.656C299.262 142.386 284.586 113.109 284.586 113.109V113.109Z" fill="#FFB6B6"/>
</svg>
