<svg width="24" height="25" viewBox="0 0 24 25" fill="none" xmlns="http://www.w3.org/2000/svg">
<path d="M19.9 21.875L13.325 15.3C12.825 15.7333 12.242 16.0708 11.576 16.3125C10.91 16.5542 10.2014 16.675 9.45 16.675C7.6473 16.675 6.12163 16.05 4.87298 14.8C3.62433 13.55 3 12.0417 3 10.275C3 8.50833 3.625 7 4.875 5.75C6.125 4.5 7.6375 3.875 9.4125 3.875C11.1875 3.875 12.6958 4.5 13.9375 5.75C15.1792 7 15.8 8.50958 15.8 10.2787C15.8 10.9929 15.6833 11.6833 15.45 12.35C15.2167 13.0167 14.8667 13.6417 14.4 14.225L21 20.775L19.9 21.875ZM9.425 15.175C10.7792 15.175 11.9302 14.6958 12.8781 13.7375C13.826 12.7792 14.3 11.625 14.3 10.275C14.3 8.925 13.826 7.77083 12.8781 6.8125C11.9302 5.85417 10.7792 5.375 9.425 5.375C8.05695 5.375 6.8941 5.85417 5.93645 6.8125C4.97882 7.77083 4.5 8.925 4.5 10.275C4.5 11.625 4.97882 12.7792 5.93645 13.7375C6.8941 14.6958 8.05695 15.175 9.425 15.175Z" fill="#CCCCCC"/>
</svg>
