<svg width="15" height="15" viewBox="0 0 15 15" fill="none" xmlns="http://www.w3.org/2000/svg">
<g clip-path="url(#clip0_607_60)">
<path d="M6.76664 6.00001H7.89998V4.30001H9.59998V3.16667H7.89998V1.46667H6.76664V3.16667H5.06664V4.30001H6.76664V6.00001ZM4.49998 11.1C3.87664 11.1 3.37231 11.61 3.37231 12.2333C3.37231 12.8567 3.87664 13.3667 4.49998 13.3667C5.12331 13.3667 5.63331 12.8567 5.63331 12.2333C5.63331 11.61 5.12331 11.1 4.49998 11.1ZM10.1666 11.1C9.54331 11.1 9.03898 11.61 9.03898 12.2333C9.03898 12.8567 9.54331 13.3667 10.1666 13.3667C10.79 13.3667 11.3 12.8567 11.3 12.2333C11.3 11.61 10.79 11.1 10.1666 11.1ZM4.59631 9.25834L4.61331 9.19034L5.12331 8.26668H9.34498C9.76998 8.26668 10.144 8.03434 10.3366 7.68301L12.524 3.71068L11.538 3.16667H11.5323L10.909 4.30001L9.34498 7.13334H5.36698L5.29331 6.98034L4.02398 4.30001L3.48564 3.16667L2.95298 2.03334H1.09998V3.16667H2.23331L4.27331 7.46768L3.50831 8.85601C3.41764 9.01468 3.36664 9.20168 3.36664 9.40001C3.36664 10.0233 3.87664 10.5333 4.49998 10.5333H11.3V9.40001H4.73798C4.66431 9.40001 4.59631 9.33768 4.59631 9.25834Z" fill="white"/>
</g>
<defs>
<clipPath id="clip0_607_60">
<rect width="13.6" height="13.6" fill="white" transform="translate(0.533325 0.900024)"/>
</clipPath>
</defs>
</svg>
