<svg width="179" height="264" viewBox="0 0 179 264" fill="none" xmlns="http://www.w3.org/2000/svg">
<path d="M178.018 121.335C174.516 100.375 156.265 84.4022 134.277 84.4022H44.3561C22.3766 84.4022 4.12944 100.362 0.61493 121.31C0.209266 123.705 0 126.169 0 128.68V206.89C0 209.401 0.209266 211.861 0.61493 214.256C3.41203 230.945 15.5654 244.471 31.5109 249.276C35.5762 250.503 39.8893 251.164 44.3561 251.164H134.277C138.743 251.164 143.056 250.503 147.122 249.276C163.072 244.467 175.229 230.933 178.018 214.231C178.419 211.844 178.628 209.393 178.628 206.89V128.68C178.628 126.178 178.419 123.723 178.018 121.335ZM141.886 249.276C139.414 249.715 136.873 249.945 134.277 249.945H44.3561C41.7597 249.945 39.2188 249.715 36.7463 249.276C16.5561 245.69 1.22562 228.077 1.22562 206.89V180.93C1.22562 107.575 60.7926 85.6256 134.277 85.6256C158.097 85.6256 177.407 104.902 177.407 128.68V206.89C119.582 214.615 162.077 245.69 141.886 249.276Z" fill="#3F3D56"/>
<path d="M107.21 143.421L110.669 165.868L161.407 158.961L156.506 132.735L107.21 143.421Z" fill="#009EDD"/>
<path d="M147.03 17.4636H126.052V39.1398H147.03V17.4636Z" fill="#2F2E41"/>
<path d="M127.966 40.3962L133.155 24.8562H143.27L143.801 40.3962H127.966Z" fill="#FFB6B6"/>
<path opacity="0.1" d="M127.966 40.3962L133.155 24.8562H143.27L143.801 40.3962H127.966Z" fill="black"/>
<path d="M133.444 178.818L132.867 238.675L132.29 243.28V249.89L140.939 250.762L141.516 237.524C141.516 237.524 150.741 211.624 148.434 191.48C146.128 171.335 147.281 177.091 147.281 177.091L133.444 178.818Z" fill="#FFB6B6"/>
<path d="M138.934 183.518L117.658 239.485L116.517 243.983L114.108 250.14L105.734 247.812L110.021 235.272C110.021 235.272 110.866 207.796 120.356 189.869C129.845 171.943 126.673 176.885 126.673 176.885L138.934 183.518Z" fill="#FFB6B6"/>
<path d="M127.966 38.6696L112.399 45.5763L122.339 96.8078L120.768 170.338L110.39 192.21C110.39 192.21 108.651 204.718 126.525 196.66C144.399 188.602 164.578 186.3 164.578 186.3L159.678 152.63L155.353 64.2819L155.93 44.7129L143.245 36.6552L127.966 38.6696V38.6696Z" fill="#2F2E41"/>
<path d="M119.296 193.009L102.021 164.141L121.762 96.8077L112.399 45.5763L128.826 38.5563C128.826 38.5563 137.33 46.8227 137.33 53.641C137.33 60.4593 119.296 193.009 119.296 193.009Z" fill="#E6E6E6"/>
<path d="M156.773 187.253L141.092 52.7872C140.894 51.0893 141.184 49.3702 141.929 47.831L146.417 38.5563L164.002 43.5618L156.933 98.5344L175.822 152.63L156.773 187.253H156.773Z" fill="#E6E6E6"/>
<path d="M142.669 249.611C142.669 249.611 131.714 243.28 130.561 246.733C129.408 250.187 128.831 253.064 128.831 253.064C128.831 253.064 125.948 264 134.597 264C143.245 264 142.669 259.026 142.669 259.026V249.611Z" fill="#2F2E41"/>
<path d="M104.542 246.111C104.542 246.111 117.054 244.192 116.869 247.828C116.685 251.463 116.173 254.353 116.173 254.353C116.173 254.353 114.874 265.586 106.818 262.446C98.7615 259.305 101.111 254.882 101.111 254.882L104.542 246.111Z" fill="#2F2E41"/>
<path d="M138.887 33.314C146.803 33.314 153.221 26.9079 153.221 19.0057C153.221 11.1034 146.803 4.69739 138.887 4.69739C130.971 4.69739 124.553 11.1034 124.553 19.0057C124.553 26.9079 130.971 33.314 138.887 33.314Z" fill="#FFB6B6"/>
<path d="M150.339 6.25495C149.672 2.72716 146.044 0.34103 142.46 0.0418153C138.876 -0.257399 135.365 1.09351 132.138 2.67741C129.95 3.7511 127.796 4.96128 126.024 6.63253C124.252 8.30378 122.875 10.487 122.557 12.8998C122.445 13.7535 122.46 14.6454 122.11 15.4324C121.672 16.4154 120.734 17.083 120.167 17.998C119.151 19.6389 119.618 22.0261 121.177 23.1651C119.217 23.9991 117.202 24.8691 115.708 26.3857C114.213 27.9022 113.35 30.2437 114.171 32.2072C114.461 32.9019 114.94 33.51 115.188 34.2207C115.659 35.5704 115.211 37.1038 114.376 38.2645C113.54 39.4253 112.362 40.286 111.203 41.1263C114.18 41.7087 117.218 42.1624 120.238 41.8907C123.259 41.6191 126.291 40.5623 128.478 38.4652C130.665 36.368 131.869 33.133 131.084 30.2086C130.483 27.9683 128.801 26.0053 128.802 23.686C128.803 21.9033 129.807 20.2951 130.777 18.798L137.13 8.9894C137.511 8.40127 137.913 7.79267 138.515 7.43295C139.539 6.82098 140.867 7.0901 141.947 7.59803C143.026 8.10597 144.013 8.83471 145.164 9.14965C147.513 9.79241 150.238 8.31631 150.979 5.99985" fill="#2F2E41"/>
<path d="M141.872 35.3536C140.677 36.5083 138.956 36.8802 137.361 37.348C135.765 37.8159 134.069 38.5518 133.351 40.0488C132.647 41.5167 133.158 43.3801 134.323 44.518C135.489 45.656 137.182 46.1353 138.812 46.1128C140.442 46.0902 142.031 45.6132 143.564 45.0594C147.756 43.5452 151.726 41.4211 155.311 38.7749C152.989 38.1337 151.47 35.4274 152.135 33.116C152.675 31.2358 154.329 29.9244 155.454 28.3227C157.391 25.565 157.713 21.9297 157.072 18.623C156.431 15.3163 154.92 12.2511 153.426 9.23132C152.954 8.27674 152.47 7.30601 151.733 6.5363C150.996 5.76661 149.953 5.21518 148.892 5.32545C147.131 5.50845 146.007 7.43768 145.995 9.20453C145.983 10.9714 146.76 12.6319 147.349 14.2981C147.955 16.0148 148.377 17.8344 148.214 19.6475C148.078 21.1669 147.524 22.6469 146.63 23.8838C145.939 24.8389 145.059 25.6405 144.308 26.5492C143.727 27.2516 143.212 28.0474 143.06 28.9453C142.782 30.5794 143.742 32.2328 143.479 33.8693C143.201 35.5992 141.377 36.9236 139.643 36.6555" fill="#2F2E41"/>
<path d="M98.0344 235.198C125.101 235.198 147.043 213.295 147.043 186.276C147.043 159.257 125.101 137.353 98.0344 137.353C70.9678 137.353 49.0259 159.257 49.0259 186.276C49.0259 213.295 70.9678 235.198 98.0344 235.198Z" fill="#009EDD"/>
<path d="M111.718 136.518C111.125 140.758 108.452 143.889 105.749 143.511C103.046 143.134 101.337 139.391 101.931 135.15C102.146 133.453 102.764 131.831 103.734 130.421L106.476 112.489L114.879 113.953L111.284 131.476C111.83 133.098 111.979 134.827 111.718 136.518Z" fill="#FFB6B6"/>
<path d="M119.029 44.7129C119.029 44.7129 110.381 41.8351 109.228 52.1951C108.074 62.5551 106.921 75.2174 106.921 75.2174C106.921 75.2174 101.732 87.3041 104.038 93.6352C106.345 99.9663 110.381 95.5522 106.345 100.925C102.309 106.297 102.871 123.974 102.871 123.974L115.858 123.322C115.858 123.322 123.065 75.7929 123.065 74.6418C123.065 73.4907 119.029 44.7129 119.029 44.7129V44.7129Z" fill="#E6E6E6"/>
<path d="M175.245 134.594C175.406 138.872 173.325 142.422 170.597 142.524C167.87 142.625 165.53 139.24 165.369 134.961C165.282 133.252 165.606 131.548 166.313 129.99L165.862 111.855L174.391 111.825L173.931 129.705C174.754 131.207 175.204 132.883 175.245 134.594V134.594Z" fill="#FFB6B6"/>
<path d="M161.931 44.5186C161.931 44.5186 170.629 41.7955 171.597 52.1744C172.564 62.5533 173.491 81.5653 173.491 81.5653C173.491 81.5653 178.463 93.7426 176.044 100.032C173.624 106.321 169.668 101.835 173.607 107.279C177.546 112.723 176.133 128.074 176.133 128.074L163.159 127.19C163.159 127.19 157.339 81.8528 157.36 80.7019C157.38 79.5509 161.931 44.5186 161.931 44.5186V44.5186Z" fill="#E6E6E6"/>
<path d="M132.873 182.332H125.642C124.517 175.702 121.045 169.699 115.861 165.417C103.93 155.562 86.2697 157.246 76.4153 169.177C76.3816 169.215 76.3493 169.254 76.3183 169.294C75.5309 170.315 75.72 171.78 76.7406 172.568C77.7611 173.355 79.2269 173.166 80.0145 172.146C84.2953 166.959 90.7748 163.659 98.0198 163.659C109.112 163.66 118.672 171.464 120.894 182.332H114.518C114.245 182.332 113.981 182.427 113.771 182.602C113.276 183.015 113.209 183.75 113.621 184.246L122.799 195.263C122.844 195.317 122.894 195.367 122.948 195.412C123.443 195.824 124.179 195.758 124.592 195.263L133.769 184.246C133.944 184.036 134.04 183.772 134.04 183.499C134.04 182.855 133.518 182.332 132.873 182.332V182.332Z" fill="white"/>
<path d="M119.299 201.432C118.278 200.645 116.813 200.834 116.025 201.854C112.63 205.966 107.929 208.791 102.705 209.861C90.0711 212.447 77.7321 204.302 75.1453 191.668H81.5222C82.1667 191.668 82.689 191.145 82.6889 190.501C82.6887 190.228 82.593 189.964 82.4185 189.754L73.2406 178.737C72.8279 178.242 72.0919 178.175 71.597 178.588C71.5429 178.633 71.4931 178.683 71.4481 178.737L62.2702 189.754C61.8579 190.25 61.9249 190.985 62.4202 191.398C62.6298 191.573 62.8938 191.668 63.1667 191.668H70.3977C71.5228 198.298 74.9942 204.301 80.1786 208.583C92.1095 218.438 109.77 216.754 119.624 204.823C119.658 204.785 119.69 204.746 119.721 204.706C120.509 203.685 120.32 202.22 119.299 201.432H119.299V201.432Z" fill="white"/>
</svg>
